<mxfile host="app.diagrams.net" modified="2021-01-16T21:26:09.911Z" agent="5.0 (Windows NT 6.1; Win64; x64) AppleWebKit/537.36 (KHTML, like Gecko) Chrome/87.0.4280.141 Safari/537.36" etag="HALRa15QdgmpHtbMuzap" version="14.2.4" type="github" pages="3">
  <diagram id="7dVKGbhCjhXqmLryuhrd" name="Page-1">
    <mxGraphModel dx="2076" dy="1048" grid="1" gridSize="10" guides="1" tooltips="1" connect="1" arrows="1" fold="1" page="1" pageScale="1" pageWidth="827" pageHeight="1169" math="0" shadow="0">
      <root>
        <mxCell id="0" />
        <mxCell id="1" parent="0" />
        <mxCell id="yeo_NnkGaFtwcMT4tBAO-1" value="" style="rounded=1;whiteSpace=wrap;html=1;" vertex="1" parent="1">
          <mxGeometry x="130" y="85" width="560" height="950" as="geometry" />
        </mxCell>
        <mxCell id="yeo_NnkGaFtwcMT4tBAO-17" value="" style="strokeWidth=1;shadow=0;dashed=0;align=center;html=1;shape=mxgraph.mockup.rrect;rSize=10;fillColor=#ffffff;strokeColor=#666666;" vertex="1" parent="1">
          <mxGeometry x="164" y="190" width="500" height="50" as="geometry" />
        </mxCell>
        <mxCell id="yeo_NnkGaFtwcMT4tBAO-20" value="&lt;font style=&quot;font-size: 23px&quot;&gt;Domani&lt;/font&gt;" style="strokeColor=inherit;fillColor=inherit;gradientColor=inherit;strokeWidth=1;shadow=0;dashed=0;align=center;html=1;shape=mxgraph.mockup.rightButton;rSize=10;fontSize=17;fontColor=#666666;fontStyle=1;resizeHeight=1;" vertex="1" parent="yeo_NnkGaFtwcMT4tBAO-17">
          <mxGeometry x="1" width="251" height="60" relative="1" as="geometry">
            <mxPoint x="-248" as="offset" />
          </mxGeometry>
        </mxCell>
        <mxCell id="yeo_NnkGaFtwcMT4tBAO-21" value="&lt;font style=&quot;font-size: 22px&quot;&gt;Oggi&lt;/font&gt;" style="strokeWidth=1;shadow=0;dashed=0;align=center;html=1;shape=mxgraph.mockup.leftButton;rSize=10;fontSize=17;fontColor=#ffffff;fontStyle=1;fillColor=#008cff;strokeColor=#008cff;resizeHeight=1;" vertex="1" parent="yeo_NnkGaFtwcMT4tBAO-17">
          <mxGeometry width="260" height="60" relative="1" as="geometry" />
        </mxCell>
        <mxCell id="yeo_NnkGaFtwcMT4tBAO-24" value="&lt;font face=&quot;Verdana&quot; style=&quot;font-size: 26px&quot;&gt;4C&lt;/font&gt;" style="strokeWidth=1;shadow=0;dashed=0;align=center;html=1;shape=mxgraph.mockup.text.textBox;fontColor=#666666;align=left;fontSize=17;spacingLeft=4;spacingTop=-3;strokeColor=#666666;mainText=" vertex="1" parent="1">
          <mxGeometry x="160" y="310" width="300" height="40" as="geometry" />
        </mxCell>
        <mxCell id="yeo_NnkGaFtwcMT4tBAO-25" value="&lt;font size=&quot;1&quot;&gt;&lt;b style=&quot;font-size: 28px&quot;&gt;4Cinf&lt;/b&gt;&lt;/font&gt;&lt;br&gt;&lt;font size=&quot;1&quot;&gt;&lt;b style=&quot;font-size: 28px&quot;&gt;4Csa&lt;/b&gt;&lt;/font&gt;" style="strokeWidth=1;shadow=0;dashed=0;align=center;html=1;shape=mxgraph.mockup.text.textBox;fontColor=#666666;align=left;fontSize=17;spacingLeft=4;spacingTop=-3;strokeColor=#666666;mainText=" vertex="1" parent="1">
          <mxGeometry x="160" y="350" width="300" height="90" as="geometry" />
        </mxCell>
        <mxCell id="yeo_NnkGaFtwcMT4tBAO-27" value="&lt;font&gt;&lt;font color=&quot;#ffffff&quot; style=&quot;font-size: 39px&quot;&gt;Fammi sapere che devo&lt;br&gt;&amp;nbsp;&lt;/font&gt;&lt;font color=&quot;#ffffff&quot; style=&quot;font-size: 39px&quot;&gt;fare&lt;/font&gt;&lt;font color=&quot;#ffffff&quot; style=&quot;font-size: 39px&quot;&gt;!!!!!&lt;/font&gt;&lt;/font&gt;" style="strokeWidth=1;shadow=0;dashed=0;align=center;html=1;shape=mxgraph.mockup.buttons.multiButton;strokeColor=#666666;mainText=;subText=;fillColor=#E6E6E6;" vertex="1" parent="1">
          <mxGeometry x="170" y="500" width="480" height="120" as="geometry" />
        </mxCell>
        <mxCell id="yeo_NnkGaFtwcMT4tBAO-28" value="" style="strokeWidth=1;shadow=0;dashed=0;align=center;html=1;shape=mxgraph.mockup.anchor;fontSize=16;fontColor=#ffffff;fontStyle=1;whiteSpace=wrap;" vertex="1" parent="yeo_NnkGaFtwcMT4tBAO-27">
          <mxGeometry y="19.2" width="480" height="48" as="geometry" />
        </mxCell>
        <mxCell id="yeo_NnkGaFtwcMT4tBAO-29" value="" style="strokeWidth=1;shadow=0;dashed=0;align=center;html=1;shape=mxgraph.mockup.anchor;fontSize=12;fontColor=#ffffff;fontStyle=1;whiteSpace=wrap;" vertex="1" parent="yeo_NnkGaFtwcMT4tBAO-27">
          <mxGeometry y="72" width="480" height="24" as="geometry" />
        </mxCell>
        <mxCell id="yeo_NnkGaFtwcMT4tBAO-30" value="" style="ellipse;whiteSpace=wrap;html=1;aspect=fixed;fillColor=#000000;" vertex="1" parent="1">
          <mxGeometry x="380" y="930" width="80" height="80" as="geometry" />
        </mxCell>
      </root>
    </mxGraphModel>
  </diagram>
  <diagram id="G-xKUMsyNGpLc5dq1rHL" name="Page-2">
    <mxGraphModel dx="2076" dy="1048" grid="1" gridSize="10" guides="1" tooltips="1" connect="1" arrows="1" fold="1" page="1" pageScale="1" pageWidth="827" pageHeight="1169" math="0" shadow="0">
      <root>
        <mxCell id="mGrOiBjeluJAInlvgejM-0" />
        <mxCell id="mGrOiBjeluJAInlvgejM-1" parent="mGrOiBjeluJAInlvgejM-0" />
        <mxCell id="b1-pMNksSgpZDVnNxmIs-0" value="" style="rounded=1;whiteSpace=wrap;html=1;" vertex="1" parent="mGrOiBjeluJAInlvgejM-1">
          <mxGeometry x="140" y="110" width="560" height="950" as="geometry" />
        </mxCell>
        <mxCell id="b1-pMNksSgpZDVnNxmIs-1" value="" style="strokeWidth=1;shadow=0;dashed=0;align=center;html=1;shape=mxgraph.mockup.rrect;rSize=10;fillColor=#ffffff;strokeColor=#666666;" vertex="1" parent="mGrOiBjeluJAInlvgejM-1">
          <mxGeometry x="174" y="215" width="500" height="50" as="geometry" />
        </mxCell>
        <mxCell id="b1-pMNksSgpZDVnNxmIs-2" value="&lt;font style=&quot;font-size: 23px&quot;&gt;Domani&lt;/font&gt;" style="strokeColor=inherit;fillColor=inherit;gradientColor=inherit;strokeWidth=1;shadow=0;dashed=0;align=center;html=1;shape=mxgraph.mockup.rightButton;rSize=10;fontSize=17;fontColor=#666666;fontStyle=1;resizeHeight=1;" vertex="1" parent="b1-pMNksSgpZDVnNxmIs-1">
          <mxGeometry x="1" width="251" height="60" relative="1" as="geometry">
            <mxPoint x="-248" as="offset" />
          </mxGeometry>
        </mxCell>
        <mxCell id="b1-pMNksSgpZDVnNxmIs-3" value="&lt;font style=&quot;font-size: 22px&quot;&gt;Oggi&lt;/font&gt;" style="strokeWidth=1;shadow=0;dashed=0;align=center;html=1;shape=mxgraph.mockup.leftButton;rSize=10;fontSize=17;fontColor=#ffffff;fontStyle=1;fillColor=#008cff;strokeColor=#008cff;resizeHeight=1;" vertex="1" parent="b1-pMNksSgpZDVnNxmIs-1">
          <mxGeometry width="260" height="60" relative="1" as="geometry" />
        </mxCell>
        <mxCell id="b1-pMNksSgpZDVnNxmIs-4" value="&lt;font face=&quot;Verdana&quot; style=&quot;font-size: 26px&quot;&gt;4C&lt;/font&gt;" style="strokeWidth=1;shadow=0;dashed=0;align=center;html=1;shape=mxgraph.mockup.text.textBox;fontColor=#666666;align=left;fontSize=17;spacingLeft=4;spacingTop=-3;strokeColor=#666666;mainText=" vertex="1" parent="mGrOiBjeluJAInlvgejM-1">
          <mxGeometry x="170" y="335" width="300" height="40" as="geometry" />
        </mxCell>
        <mxCell id="b1-pMNksSgpZDVnNxmIs-5" value="&lt;font size=&quot;1&quot;&gt;&lt;b style=&quot;font-size: 28px&quot;&gt;4Cinf&lt;/b&gt;&lt;/font&gt;&lt;br&gt;&lt;font size=&quot;1&quot;&gt;&lt;b style=&quot;font-size: 28px&quot;&gt;4Csa&lt;/b&gt;&lt;/font&gt;" style="strokeWidth=1;shadow=0;dashed=0;align=center;html=1;shape=mxgraph.mockup.text.textBox;fontColor=#666666;align=left;fontSize=17;spacingLeft=4;spacingTop=-3;strokeColor=#666666;mainText=" vertex="1" parent="mGrOiBjeluJAInlvgejM-1">
          <mxGeometry x="170" y="375" width="300" height="90" as="geometry" />
        </mxCell>
        <mxCell id="b1-pMNksSgpZDVnNxmIs-6" value="&lt;font&gt;&lt;font color=&quot;#ffffff&quot; style=&quot;font-size: 39px&quot;&gt;Fammi sapere che devo&lt;br&gt;&amp;nbsp;&lt;/font&gt;&lt;font color=&quot;#ffffff&quot; style=&quot;font-size: 39px&quot;&gt;fare&lt;/font&gt;&lt;font color=&quot;#ffffff&quot; style=&quot;font-size: 39px&quot;&gt;!!!!!&lt;/font&gt;&lt;/font&gt;" style="strokeWidth=1;shadow=0;dashed=0;align=center;html=1;shape=mxgraph.mockup.buttons.multiButton;strokeColor=#666666;mainText=;subText=;fillColor=#E6E6E6;" vertex="1" parent="mGrOiBjeluJAInlvgejM-1">
          <mxGeometry x="180" y="525" width="480" height="120" as="geometry" />
        </mxCell>
        <mxCell id="b1-pMNksSgpZDVnNxmIs-7" value="" style="strokeWidth=1;shadow=0;dashed=0;align=center;html=1;shape=mxgraph.mockup.anchor;fontSize=16;fontColor=#ffffff;fontStyle=1;whiteSpace=wrap;" vertex="1" parent="b1-pMNksSgpZDVnNxmIs-6">
          <mxGeometry y="19.2" width="480" height="48" as="geometry" />
        </mxCell>
        <mxCell id="b1-pMNksSgpZDVnNxmIs-8" value="" style="strokeWidth=1;shadow=0;dashed=0;align=center;html=1;shape=mxgraph.mockup.anchor;fontSize=12;fontColor=#ffffff;fontStyle=1;whiteSpace=wrap;" vertex="1" parent="b1-pMNksSgpZDVnNxmIs-6">
          <mxGeometry y="72" width="480" height="24" as="geometry" />
        </mxCell>
        <mxCell id="b1-pMNksSgpZDVnNxmIs-9" value="" style="ellipse;whiteSpace=wrap;html=1;aspect=fixed;fillColor=#000000;" vertex="1" parent="mGrOiBjeluJAInlvgejM-1">
          <mxGeometry x="390" y="955" width="80" height="80" as="geometry" />
        </mxCell>
      </root>
    </mxGraphModel>
  </diagram>
  <diagram id="5QxQmh_JNIBAA7lNMgL2" name="Page-3">
    <mxGraphModel dx="1038" dy="524" grid="1" gridSize="10" guides="1" tooltips="1" connect="1" arrows="1" fold="1" page="1" pageScale="1" pageWidth="827" pageHeight="1169" math="0" shadow="0">
      <root>
        <mxCell id="PWgvsLHlgn9H-OpdYqa8-0" />
        <mxCell id="PWgvsLHlgn9H-OpdYqa8-1" parent="PWgvsLHlgn9H-OpdYqa8-0" />
      </root>
    </mxGraphModel>
  </diagram>
</mxfile>
